<svg width="169" height="222" viewBox="0 0 169 222" fill="none" xmlns="http://www.w3.org/2000/svg">
<path d="M30.0625 72.9657C30.0625 72.0734 30.7858 71.3501 31.678 71.3501H60.7579C61.6501 71.3501 62.3734 72.0734 62.3734 72.9657V77.4892C62.3734 78.3815 61.6501 79.1048 60.7579 79.1048H31.678C30.7858 79.1048 30.0625 78.3815 30.0625 77.4892V72.9657Z" fill="#A39FFF"/>
<path d="M65.6045 83.9514C65.6045 83.0592 66.3278 82.3359 67.2201 82.3359H96.2999C97.1921 82.3359 97.9154 83.0592 97.9154 83.9514V113.031C97.9154 113.923 97.1921 114.647 96.2999 114.647H67.2201C66.3278 114.647 65.6045 113.923 65.6045 113.031V83.9514Z" fill="white"/>
<path d="M65.6045 72.9657C65.6045 72.0734 66.3278 71.3501 67.2201 71.3501H96.2999C97.1921 71.3501 97.9154 72.0734 97.9154 72.9657V77.4892C97.9154 78.3815 97.1921 79.1048 96.2999 79.1048H67.2201C66.3278 79.1048 65.6045 78.3815 65.6045 77.4892V72.9657Z" fill="#A39FFF"/>
<path d="M101.147 83.9514C101.147 83.0592 101.87 82.3359 102.762 82.3359H131.842C132.734 82.3359 133.457 83.0592 133.457 83.9514V113.031C133.457 113.923 132.734 114.647 131.842 114.647H102.762C101.87 114.647 101.147 113.923 101.147 113.031V83.9514Z" fill="white"/>
<path d="M101.147 72.9657C101.147 72.0734 101.87 71.3501 102.762 71.3501H131.842C132.734 71.3501 133.457 72.0734 133.457 72.9657V77.4892C133.457 78.3815 132.734 79.1048 131.842 79.1048H102.762C101.87 79.1048 101.147 78.3815 101.147 77.4892V72.9657Z" fill="#A39FFF"/>
<path d="M136.689 83.9514C136.689 83.0592 137.412 82.3359 138.304 82.3359H167.384C168.276 82.3359 168.999 83.0592 168.999 83.9514V113.031C168.999 113.923 168.276 114.647 167.384 114.647H138.304C137.412 114.647 136.689 113.923 136.689 113.031V83.9514Z" fill="#CAFCD1"/>
<path d="M164.698 106.085H165.876C166.036 106.085 166.14 105.92 166.068 105.781L163.369 100.546C163.267 100.348 162.961 100.419 162.961 100.64V106.085H161.784C161.623 106.085 161.519 106.249 161.591 106.389L164.29 111.623C164.392 111.82 164.698 111.75 164.698 111.529V106.085Z" fill="white"/>
<path d="M65.6045 119.493C65.6045 118.601 66.3278 117.878 67.2201 117.878H96.2999C97.1921 117.878 97.9154 118.601 97.9154 119.493V148.573C97.9154 149.465 97.1921 150.189 96.2999 150.189H67.2201C66.3278 150.189 65.6045 149.465 65.6045 148.573V119.493Z" fill="#CAFCD1"/>
<path d="M93.6141 141.627H94.7918C94.9521 141.627 95.0562 141.462 94.9843 141.323L92.2851 136.088C92.1832 135.89 91.8773 135.961 91.8773 136.182V141.627H90.6996C90.5393 141.627 90.4352 141.791 90.5071 141.931L93.2063 147.165C93.3082 147.362 93.6141 147.292 93.6141 147.071V141.627Z" fill="white"/>
<path d="M101.147 155.035C101.147 154.143 101.87 153.42 102.762 153.42H131.842C132.734 153.42 133.457 154.143 133.457 155.035V184.115C133.457 185.007 132.734 185.731 131.842 185.731H102.762C101.87 185.731 101.147 185.007 101.147 184.115V155.035Z" fill="#CAFCD1"/>
<path d="M129.156 177.169H130.334C130.494 177.169 130.598 177.004 130.526 176.865L127.827 171.63C127.725 171.432 127.419 171.503 127.419 171.724V177.169H126.242C126.081 177.169 125.977 177.333 126.049 177.473L128.748 182.707C128.85 182.904 129.156 182.834 129.156 182.613V177.169Z" fill="white"/>
<path d="M101.147 155.035C101.147 154.143 101.87 153.42 102.762 153.42H131.842C132.734 153.42 133.457 154.143 133.457 155.035V184.115C133.457 185.007 132.734 185.731 131.842 185.731H102.762C101.87 185.731 101.147 185.007 101.147 184.115V155.035Z" fill="#CAFCD1"/>
<path d="M129.156 177.169H130.334C130.494 177.169 130.598 177.004 130.526 176.865L127.827 171.63C127.725 171.432 127.419 171.503 127.419 171.724V177.169H126.242C126.081 177.169 125.977 177.333 126.049 177.473L128.748 182.707C128.85 182.904 129.156 182.834 129.156 182.613V177.169Z" fill="white"/>
<path d="M136.689 72.9657C136.689 72.0734 137.412 71.3501 138.304 71.3501H167.384C168.276 71.3501 168.999 72.0734 168.999 72.9657V77.4892C168.999 78.3815 168.276 79.1048 167.384 79.1048H138.304C137.412 79.1048 136.689 78.3815 136.689 77.4892V72.9657Z" fill="#A39FFF"/>
<path d="M30.0625 83.9433C30.0625 83.0511 30.7858 82.3278 31.678 82.3278H60.7579C61.6501 82.3278 62.3734 83.0511 62.3734 83.9433V113.023C62.3734 113.915 61.6501 114.639 60.7579 114.639H31.678C30.7858 114.639 30.0625 113.915 30.0625 113.023V83.9433Z" fill="white"/>
<path d="M101.147 119.493C101.147 118.601 101.87 117.878 102.762 117.878H131.842C132.734 117.878 133.457 118.601 133.457 119.493V148.573C133.457 149.465 132.734 150.189 131.842 150.189H102.762C101.87 150.189 101.147 149.465 101.147 148.573V119.493Z" fill="white"/>
<path d="M101.147 190.577C101.147 189.685 101.87 188.962 102.762 188.962H131.842C132.734 188.962 133.457 189.685 133.457 190.577V219.657C133.457 220.549 132.734 221.273 131.842 221.273H102.762C101.87 221.273 101.147 220.549 101.147 219.657V190.577Z" fill="white"/>
<path d="M136.689 119.493C136.689 118.601 137.412 117.878 138.304 117.878H167.384C168.276 117.878 168.999 118.601 168.999 119.493V148.573C168.999 149.465 168.276 150.189 167.384 150.189H138.304C137.412 150.189 136.689 149.465 136.689 148.573V119.493Z" fill="white"/>
<path d="M136.689 155.035C136.689 154.143 137.412 153.42 138.304 153.42H167.384C168.276 153.42 168.999 154.143 168.999 155.035V184.115C168.999 185.007 168.276 185.731 167.384 185.731H138.304C137.412 185.731 136.689 185.007 136.689 184.115V155.035Z" fill="white"/>
<path d="M30.0625 119.598C30.0625 118.706 30.7858 117.983 31.678 117.983H60.7579C61.6501 117.983 62.3734 118.706 62.3734 119.598V148.678C62.3734 149.57 61.6501 150.294 60.7579 150.294H31.678C30.7858 150.294 30.0625 149.57 30.0625 148.678V119.598Z" fill="white"/>
<path d="M19.0895 35.9147H26.2721C27.2494 35.9147 27.8843 34.8984 27.4457 34.0362L10.9844 1.67228C10.3631 0.450633 8.4974 0.887119 8.4974 2.25414V35.9147H1.31505C0.337705 35.9147 -0.297236 36.931 0.141409 37.7932L16.6026 70.1514C17.224 71.373 19.0895 70.9365 19.0895 69.5695V35.9147Z" fill="#1A1AFF"/>
</svg>
