<svg width="171" height="224" viewBox="0 0 171 224" fill="none" xmlns="http://www.w3.org/2000/svg">
<path d="M114 212.747C114 211.297 115.176 210.121 116.627 210.121H168.373C169.824 210.121 171 211.297 171 212.747V220.627C171 222.078 169.824 223.254 168.373 223.254H116.627C115.176 223.254 114 222.078 114 220.627V212.747Z" fill="#D1CFFF"/>
<path d="M57 141.265C57 139.815 58.176 138.639 59.6267 138.639H168.373C169.824 138.639 171 139.815 171 141.265V149.146C171 150.596 169.824 151.772 168.373 151.772H59.6267C58.176 151.772 57 150.596 57 149.146V141.265Z" fill="#EAEBEC"/>
<path d="M0 159.127C0 157.676 1.17603 156.5 2.62673 156.5H111.373C112.824 156.5 114 157.676 114 159.127V167.007C114 168.458 112.824 169.634 111.373 169.634H2.62673C1.17603 169.634 0 168.458 0 167.007V159.127Z" fill="#96FAAE"/>
<path d="M0 176.989C0 175.538 1.17603 174.362 2.62673 174.362H111.373C112.824 174.362 114 175.538 114 176.989V184.869C114 186.32 112.824 187.496 111.373 187.496H2.62673C1.17603 187.496 0 186.32 0 184.869V176.989Z" fill="#EAEBEC"/>
<path d="M0 194.851C0 193.4 1.17603 192.224 2.62673 192.224H111.373C112.824 192.224 114 193.4 114 194.851V202.731C114 204.182 112.824 205.358 111.373 205.358H2.62673C1.17603 205.358 0 204.182 0 202.731V194.851Z" fill="#EAEBEC"/>
<path d="M57.2852 123.249C57.2852 121.832 57.8673 120.684 58.5854 120.684H112.415C113.133 120.684 113.715 121.832 113.715 123.249V130.944C113.715 132.36 113.133 133.509 112.415 133.509H58.5854C57.8673 133.509 57.2852 132.36 57.2852 130.944V123.249Z" fill="#EAEBEC"/>
<path fill-rule="evenodd" clip-rule="evenodd" d="M23.6819 4.68058C25.4365 6.38622 25.4365 9.1516 23.6819 10.8572L10.1706 23.9913L23.6819 37.1253C25.4365 38.8309 25.4365 41.5963 23.6819 43.302C21.9273 45.0076 19.0824 45.0076 17.3278 43.302L1.78791 28.196C-0.595967 25.8787 -0.595971 22.1039 1.78791 19.7865L17.3278 4.68058C19.0824 2.97494 21.9273 2.97494 23.6819 4.68058Z" fill="#AAB2C0"/>
<path fill-rule="evenodd" clip-rule="evenodd" d="M62.1613 43.3021C60.4321 41.5965 60.4321 38.8311 62.1613 37.1255L75.4768 23.9915L62.1613 10.8574C60.4321 9.15179 60.4321 6.3864 62.1613 4.68077C63.8905 2.97513 66.6941 2.97513 68.4233 4.68077L83.738 19.7867C86.0873 22.104 86.0873 25.8789 83.738 28.1962L68.4233 43.3021C66.6941 45.0078 63.8905 45.0078 62.1613 43.3021Z" fill="#AAB2C0"/>
<path fill-rule="evenodd" clip-rule="evenodd" d="M52.0575 0.42341C54.3452 1.29527 55.4846 3.83504 54.6025 6.09615L38.3477 47.763C37.4656 50.0241 34.896 51.1503 32.6084 50.2784C30.3207 49.4066 29.1813 46.8668 30.0634 44.6057L46.3182 2.93887C47.2003 0.677761 49.7699 -0.448448 52.0575 0.42341Z" fill="#AAB2C0"/>
</svg>
