<svg width="164" height="222" viewBox="0 0 164 222" fill="none" xmlns="http://www.w3.org/2000/svg">
<path d="M14.082 56.9738C14.082 55.7063 15.5132 54.6787 17.2786 54.6787H160.805C162.57 54.6787 164.001 55.7063 164.001 56.9738V219.697C164.001 220.964 162.57 221.992 160.805 221.992H17.2786C15.5132 221.992 14.082 220.964 14.082 219.697V56.9738Z" fill="white"/>
<path d="M81.4054 139.246C83.2094 139.246 84.6719 140.69 84.6719 142.471L84.6719 206.016C84.6719 207.797 83.2094 209.241 81.4054 209.241L71.606 209.241C69.802 209.241 68.3395 207.797 68.3395 206.016L68.3395 142.471C68.3395 140.69 69.802 139.246 71.606 139.246L81.4054 139.246Z" fill="#CAFCD1"/>
<path d="M58.8488 174.243C60.6528 174.243 62.1152 175.694 62.1152 177.484L62.1152 206.001C62.1152 207.79 60.6528 209.241 58.8488 209.241L49.0494 209.241C47.2453 209.241 45.7829 207.79 45.7829 206.001L45.7829 177.484C45.7829 175.694 47.2453 174.243 49.0494 174.243L58.8488 174.243Z" fill="#EAEBEC"/>
<path d="M124.405 36.4565C126.144 36.4565 127.553 38.2424 127.553 40.4453L127.553 205.579C127.553 207.782 126.144 209.568 124.405 209.568L114.963 209.568C113.225 209.568 111.815 207.782 111.815 205.579L111.815 40.4453C111.815 38.2424 113.225 36.4565 114.963 36.4565L124.405 36.4565Z" fill="#60F092"/>
<path d="M102.557 70.0273C104.275 70.0273 105.668 71.4635 105.668 73.235L105.668 206.034C105.668 207.805 104.275 209.241 102.557 209.241L93.2243 209.241C91.5062 209.241 90.1133 207.805 90.1133 206.034L90.1134 73.235C90.1134 71.4635 91.5062 70.0273 93.2243 70.0273L102.557 70.0273Z" fill="#60F092"/>
<path d="M146.112 0.0312499C147.83 0.0312499 149.223 1.47006 149.223 3.24492L149.223 206.027C149.223 207.802 147.83 209.241 146.112 209.241L136.779 209.241C135.061 209.241 133.668 207.802 133.668 206.027L133.668 3.24492C133.668 1.47006 135.061 0.0312494 136.779 0.0312495L146.112 0.0312499Z" fill="#746FFF"/>
<path fill-rule="evenodd" clip-rule="evenodd" d="M65.1027 52.9607C65.1027 61.0169 58.579 67.5478 50.5317 67.5478C42.4844 67.5478 35.9607 61.0169 35.9607 52.9607C35.9607 44.9044 42.4844 38.3735 50.5317 38.3735C58.579 38.3735 65.1027 44.9044 65.1027 52.9607ZM77.7731 52.9607C77.7731 68.0224 65.5767 80.2324 50.5317 80.2324C45.4152 80.2324 40.6281 78.8202 36.5382 76.364C36.3847 76.69 36.1733 76.9956 35.9041 77.2651L9.8986 103.3C8.64625 104.553 6.61581 104.553 5.36346 103.3L0.939255 98.8704C-0.313086 97.6167 -0.313085 95.584 0.939257 94.3302L26.9448 68.2958C27.159 68.0813 27.396 67.9035 27.648 67.7624C24.891 63.4994 23.2903 58.4172 23.2903 52.9607C23.2903 37.8989 35.4867 25.689 50.5317 25.689C65.5767 25.689 77.7731 37.8989 77.7731 52.9607Z" fill="#00CF71"/>
</svg>
