<svg width="774" height="135" viewBox="0 0 774 135" fill="none" xmlns="http://www.w3.org/2000/svg">
<rect width="774" height="135" fill="white"/>
<path d="M227.145 22.8452V53.061L320.44 42.129V15.9873L227.145 22.8452Z" fill="#170FFF"/>
<path d="M297.863 66.7441L265.406 67.2535L306.418 121.404L330.15 103.954L297.863 66.7441Z" fill="#170FFF"/>
<path d="M257.904 22.8467H227.145V117.636H257.904V22.8467Z" fill="#170FFF"/>
<path d="M280.786 87.7579L320.44 59.036V25.9004L265.406 67.252L280.786 87.7579Z" fill="#170FFF"/>
<path d="M387.087 90.9161C372.726 90.9161 362.676 81.0026 362.676 66.3021C362.676 52.4503 372.759 42.401 387.087 42.401C401.414 42.401 410.988 52.4843 410.988 66.3021C410.988 81.0026 401.074 90.9161 387.087 90.9161ZM386.917 120.453C418.015 120.453 440.558 97.74 440.558 66.6415C440.558 35.543 418.015 13 386.917 13C355.818 13 333.105 35.543 333.105 66.6415C333.105 97.74 355.649 120.453 386.917 120.453Z" fill="#170FFF"/>
<path d="M605.696 90.9161C591.335 90.9161 581.286 81.0026 581.286 66.3021C581.286 52.4503 591.369 42.401 605.696 42.401C620.023 42.401 629.597 52.4843 629.597 66.3021C629.597 81.0026 619.683 90.9161 605.696 90.9161ZM605.526 120.453C636.625 120.453 659.168 97.74 659.168 66.6415C659.168 35.543 636.625 13 605.526 13C574.428 13 551.715 35.543 551.715 66.6415C551.715 97.74 574.258 120.453 605.526 120.453Z" fill="#170FFF"/>
<path d="M513.106 24.3389H480.141V118.28H513.106V24.3389Z" fill="#170FFF"/>
<path d="M544.388 49.1211V17.1738L447.969 23.3188V54.9266L544.388 49.1211Z" fill="#170FFF"/>
<path d="M149.673 22.7412H118.914V117.531H149.673V22.7412Z" fill="#170FFF"/>
<path d="M118.914 22.7419L213.873 15.918V42.5689L118.914 52.822V22.7419Z" fill="#170FFF"/>
<path d="M176.469 91.083L158.543 66.9782L213.882 30.0742V62.1912L176.469 91.083Z" fill="#170FFF"/>
<path d="M52.4345 83.9188L102.987 62.1905V23.3174C102.987 23.3174 85.3324 31.126 56.848 44.8759C34.4068 55.706 19.0273 63.8541 19.0273 63.8541V117.122H102.987V83.2057L52.4345 83.9188Z" fill="#170FFF"/>
<path d="M19 117.124H102.993V83.208L19 84.2944V117.124Z" fill="#170FFF"/>
<path d="M721.134 52.9603L670.582 74.6886V113.562C670.582 113.562 688.236 105.753 716.721 92.0032C739.162 81.173 754.541 73.0249 754.541 73.0249V19.7568H670.582V53.6733L721.134 52.9603Z" fill="#170FFF"/>
<path d="M754.541 19.7568H670.582V53.6733L754.541 52.5869V19.7568Z" fill="#170FFF"/>
</svg>
