<svg width="972" height="21" viewBox="0 0 972 21" fill="none" xmlns="http://www.w3.org/2000/svg">
<rect width="971.6" height="21" rx="10" fill="#EAEBEC"/>
<path d="M29.0008 7.824C29.3368 7.824 29.6635 7.796 29.9808 7.74C30.2981 7.684 30.5828 7.59067 30.8348 7.46C31.0961 7.32933 31.3155 7.16133 31.4928 6.956C31.6795 6.75067 31.8008 6.49867 31.8568 6.2H33.1588V16H31.4088V9.084H29.0008V7.824Z" fill="#6A717D"/>
<path d="M115.798 16H109.106C109.115 15.188 109.311 14.4787 109.694 13.872C110.076 13.2653 110.599 12.738 111.262 12.29C111.579 12.0567 111.91 11.8327 112.256 11.618C112.601 11.394 112.918 11.156 113.208 10.904C113.497 10.652 113.735 10.3813 113.922 10.092C114.108 9.79333 114.206 9.45267 114.216 9.07C114.216 8.89267 114.192 8.706 114.146 8.51C114.108 8.30467 114.029 8.118 113.908 7.95C113.786 7.77267 113.618 7.628 113.404 7.516C113.189 7.39467 112.909 7.334 112.564 7.334C112.246 7.334 111.98 7.39933 111.766 7.53C111.56 7.65133 111.392 7.824 111.262 8.048C111.14 8.26267 111.047 8.51933 110.982 8.818C110.926 9.11667 110.893 9.43867 110.884 9.784H109.288C109.288 9.24267 109.358 8.74333 109.498 8.286C109.647 7.81933 109.866 7.418 110.156 7.082C110.445 6.746 110.795 6.48467 111.206 6.298C111.626 6.102 112.111 6.004 112.662 6.004C113.259 6.004 113.758 6.102 114.16 6.298C114.561 6.494 114.883 6.74133 115.126 7.04C115.378 7.33867 115.555 7.66533 115.658 8.02C115.76 8.36533 115.812 8.69667 115.812 9.014C115.812 9.406 115.751 9.76067 115.63 10.078C115.508 10.3953 115.345 10.6893 115.14 10.96C114.934 11.2213 114.701 11.464 114.44 11.688C114.178 11.912 113.908 12.122 113.628 12.318C113.348 12.514 113.068 12.7007 112.788 12.878C112.508 13.0553 112.246 13.2327 112.004 13.41C111.77 13.5873 111.565 13.774 111.388 13.97C111.21 14.1567 111.089 14.3573 111.024 14.572H115.798V16Z" fill="#6A717D"/>
<path d="M192.052 10.26C192.314 10.2693 192.575 10.2507 192.836 10.204C193.098 10.1573 193.331 10.078 193.536 9.966C193.742 9.84467 193.905 9.68133 194.026 9.476C194.157 9.27067 194.222 9.01867 194.222 8.72C194.222 8.3 194.078 7.964 193.788 7.712C193.508 7.46 193.144 7.334 192.696 7.334C192.416 7.334 192.174 7.39 191.968 7.502C191.763 7.614 191.59 7.768 191.45 7.964C191.32 8.15067 191.222 8.36533 191.156 8.608C191.091 8.84133 191.063 9.084 191.072 9.336H189.476C189.495 8.86 189.584 8.42133 189.742 8.02C189.901 7.60933 190.116 7.25467 190.386 6.956C190.666 6.65733 191.002 6.424 191.394 6.256C191.786 6.088 192.23 6.004 192.724 6.004C193.107 6.004 193.48 6.06 193.844 6.172C194.218 6.284 194.549 6.44733 194.838 6.662C195.137 6.87667 195.375 7.152 195.552 7.488C195.73 7.81467 195.818 8.19267 195.818 8.622C195.818 9.11667 195.706 9.55067 195.482 9.924C195.258 10.288 194.908 10.554 194.432 10.722V10.75C194.992 10.862 195.426 11.142 195.734 11.59C196.052 12.0287 196.21 12.5653 196.21 13.2C196.21 13.6667 196.117 14.0867 195.93 14.46C195.744 14.824 195.492 15.1367 195.174 15.398C194.857 15.65 194.488 15.846 194.068 15.986C193.648 16.126 193.205 16.196 192.738 16.196C192.169 16.196 191.67 16.1167 191.24 15.958C190.82 15.79 190.466 15.5567 190.176 15.258C189.896 14.9593 189.682 14.6 189.532 14.18C189.383 13.76 189.304 13.2933 189.294 12.78H190.89C190.872 13.3773 191.016 13.8767 191.324 14.278C191.642 14.67 192.113 14.866 192.738 14.866C193.27 14.866 193.714 14.7167 194.068 14.418C194.432 14.11 194.614 13.676 194.614 13.116C194.614 12.7333 194.54 12.43 194.39 12.206C194.241 11.982 194.045 11.814 193.802 11.702C193.56 11.5807 193.284 11.506 192.976 11.478C192.678 11.45 192.37 11.4407 192.052 11.45V10.26Z" fill="#6A717D"/>
<path d="M270.725 12.416H273.693V8.104H273.665L270.725 12.416ZM276.465 13.676H275.205V16H273.693V13.676H269.493V12.094L273.693 6.2H275.205V12.416H276.465V13.676Z" fill="#6A717D"/>
<path d="M351.18 6.2H356.248V7.628H352.37L351.866 10.12L351.894 10.148C352.109 9.90533 352.379 9.72333 352.706 9.602C353.042 9.47133 353.373 9.406 353.7 9.406C354.185 9.406 354.619 9.49 355.002 9.658C355.385 9.81667 355.707 10.0453 355.968 10.344C356.229 10.6333 356.425 10.9787 356.556 11.38C356.696 11.7813 356.766 12.2153 356.766 12.682C356.766 13.074 356.701 13.48 356.57 13.9C356.449 14.3107 356.248 14.6887 355.968 15.034C355.697 15.37 355.347 15.65 354.918 15.874C354.489 16.0887 353.975 16.196 353.378 16.196C352.902 16.196 352.459 16.1307 352.048 16C351.647 15.8787 351.292 15.692 350.984 15.44C350.676 15.188 350.429 14.88 350.242 14.516C350.065 14.1427 349.967 13.7087 349.948 13.214H351.544C351.591 13.746 351.773 14.1567 352.09 14.446C352.407 14.726 352.827 14.866 353.35 14.866C353.686 14.866 353.971 14.81 354.204 14.698C354.437 14.586 354.624 14.432 354.764 14.236C354.913 14.04 355.016 13.8113 355.072 13.55C355.137 13.2887 355.17 13.0087 355.17 12.71C355.17 12.4393 355.133 12.1827 355.058 11.94C354.983 11.688 354.871 11.4687 354.722 11.282C354.573 11.0953 354.377 10.946 354.134 10.834C353.901 10.722 353.625 10.666 353.308 10.666C352.972 10.666 352.655 10.7313 352.356 10.862C352.067 10.9833 351.857 11.2167 351.726 11.562H350.13L351.18 6.2Z" fill="#6A717D"/>
<path d="M435.289 8.678C435.251 8.27667 435.107 7.95467 434.855 7.712C434.612 7.46 434.281 7.334 433.861 7.334C433.571 7.334 433.319 7.39 433.105 7.502C432.899 7.60467 432.722 7.74467 432.573 7.922C432.433 8.09933 432.316 8.30467 432.223 8.538C432.139 8.762 432.069 9 432.013 9.252C431.957 9.504 431.915 9.756 431.887 10.008C431.868 10.2507 431.849 10.4793 431.831 10.694L431.859 10.722C432.073 10.33 432.367 10.0407 432.741 9.854C433.123 9.658 433.534 9.56 433.973 9.56C434.458 9.56 434.892 9.644 435.275 9.812C435.657 9.98 435.979 10.2133 436.241 10.512C436.511 10.8013 436.717 11.1467 436.857 11.548C436.997 11.9493 437.067 12.3833 437.067 12.85C437.067 13.326 436.987 13.7693 436.829 14.18C436.679 14.5813 436.46 14.936 436.171 15.244C435.881 15.5427 435.536 15.776 435.135 15.944C434.733 16.112 434.29 16.196 433.805 16.196C433.086 16.196 432.493 16.0653 432.027 15.804C431.569 15.5333 431.205 15.1693 430.935 14.712C430.673 14.2453 430.491 13.704 430.389 13.088C430.286 12.4627 430.235 11.7907 430.235 11.072C430.235 10.484 430.295 9.89133 430.417 9.294C430.547 8.69667 430.757 8.15533 431.047 7.67C431.336 7.17533 431.714 6.774 432.181 6.466C432.657 6.158 433.24 6.004 433.931 6.004C434.323 6.004 434.691 6.06933 435.037 6.2C435.382 6.33067 435.685 6.51267 435.947 6.746C436.217 6.97933 436.437 7.25933 436.605 7.586C436.773 7.91267 436.866 8.27667 436.885 8.678H435.289ZM433.749 14.866C434.038 14.866 434.29 14.81 434.505 14.698C434.719 14.5767 434.897 14.4227 435.037 14.236C435.186 14.0493 435.293 13.8347 435.359 13.592C435.433 13.34 435.471 13.0833 435.471 12.822C435.471 12.5607 435.433 12.3087 435.359 12.066C435.293 11.8233 435.186 11.6133 435.037 11.436C434.897 11.2493 434.719 11.1 434.505 10.988C434.29 10.876 434.038 10.82 433.749 10.82C433.459 10.82 433.203 10.876 432.979 10.988C432.764 11.0907 432.582 11.2353 432.433 11.422C432.283 11.5993 432.171 11.8093 432.097 12.052C432.022 12.2947 431.985 12.5513 431.985 12.822C431.985 13.0927 432.022 13.3493 432.097 13.592C432.171 13.8347 432.283 14.054 432.433 14.25C432.582 14.4367 432.764 14.586 432.979 14.698C433.203 14.81 433.459 14.866 433.749 14.866Z" fill="#6A717D"/>
<path d="M510.55 6.2H517.256V7.53C516.742 8.10867 516.276 8.71067 515.856 9.336C515.436 9.952 515.067 10.61 514.75 11.31C514.442 12.0007 514.19 12.7333 513.994 13.508C513.798 14.2827 513.667 15.1133 513.602 16H511.852C511.908 15.2253 512.038 14.46 512.244 13.704C512.458 12.948 512.729 12.2153 513.056 11.506C513.392 10.7967 513.779 10.1153 514.218 9.462C514.656 8.80867 515.128 8.19733 515.632 7.628H510.55V6.2Z" fill="#6A717D"/>
<path d="M594.252 7.264C593.823 7.264 593.459 7.39467 593.16 7.656C592.862 7.908 592.712 8.27667 592.712 8.762C592.712 9.22867 592.857 9.588 593.146 9.84C593.436 10.0827 593.804 10.204 594.252 10.204C594.7 10.204 595.069 10.0827 595.358 9.84C595.648 9.588 595.792 9.22867 595.792 8.762C595.792 8.27667 595.643 7.908 595.344 7.656C595.046 7.39467 594.682 7.264 594.252 7.264ZM594.252 16.196C593.758 16.196 593.296 16.126 592.866 15.986C592.446 15.846 592.082 15.6453 591.774 15.384C591.466 15.1133 591.224 14.7867 591.046 14.404C590.878 14.0213 590.794 13.592 590.794 13.116C590.794 12.5 590.953 11.982 591.27 11.562C591.597 11.142 592.036 10.862 592.586 10.722V10.694C592.138 10.526 591.793 10.2693 591.55 9.924C591.317 9.56933 591.2 9.154 591.2 8.678C591.2 7.838 591.462 7.18467 591.984 6.718C592.516 6.242 593.272 6.004 594.252 6.004C595.232 6.004 595.984 6.242 596.506 6.718C597.038 7.18467 597.304 7.838 597.304 8.678C597.304 9.154 597.183 9.56933 596.94 9.924C596.707 10.2693 596.366 10.526 595.918 10.694V10.722C596.469 10.862 596.903 11.142 597.22 11.562C597.547 11.982 597.71 12.5 597.71 13.116C597.71 13.592 597.622 14.0213 597.444 14.404C597.276 14.7867 597.038 15.1133 596.73 15.384C596.422 15.6453 596.054 15.846 595.624 15.986C595.204 16.126 594.747 16.196 594.252 16.196ZM594.252 14.936C594.784 14.936 595.228 14.7773 595.582 14.46C595.937 14.1427 596.114 13.6947 596.114 13.116C596.114 12.5747 595.937 12.1547 595.582 11.856C595.228 11.548 594.784 11.394 594.252 11.394C593.72 11.394 593.277 11.548 592.922 11.856C592.568 12.1547 592.39 12.5747 592.39 13.116C592.39 13.6947 592.568 14.1427 592.922 14.46C593.277 14.7773 593.72 14.936 594.252 14.936Z" fill="#6A717D"/>
<path d="M672.911 13.522C672.949 13.9233 673.089 14.25 673.331 14.502C673.583 14.7447 673.919 14.866 674.339 14.866C674.769 14.866 675.109 14.754 675.361 14.53C675.623 14.2967 675.823 14.012 675.963 13.676C676.103 13.3307 676.197 12.9667 676.243 12.584C676.299 12.192 676.341 11.8327 676.369 11.506L676.341 11.478C676.127 11.8607 675.833 12.1547 675.459 12.36C675.086 12.556 674.675 12.654 674.227 12.654C673.761 12.654 673.336 12.5747 672.953 12.416C672.58 12.2573 672.258 12.038 671.987 11.758C671.717 11.4687 671.507 11.1233 671.357 10.722C671.208 10.3113 671.133 9.854 671.133 9.35C671.133 8.874 671.208 8.43533 671.357 8.034C671.507 7.62333 671.726 7.26867 672.015 6.97C672.305 6.662 672.659 6.424 673.079 6.256C673.499 6.088 673.975 6.004 674.507 6.004C675.198 6.004 675.767 6.13933 676.215 6.41C676.663 6.67133 677.013 7.03533 677.265 7.502C677.527 7.95933 677.709 8.50067 677.811 9.126C677.914 9.75133 677.965 10.4187 677.965 11.128C677.965 11.716 677.9 12.3087 677.769 12.906C677.648 13.5033 677.443 14.0493 677.153 14.544C676.864 15.0293 676.481 15.426 676.005 15.734C675.539 16.042 674.96 16.196 674.269 16.196C673.877 16.196 673.509 16.1307 673.163 16C672.818 15.8693 672.51 15.6873 672.239 15.454C671.978 15.2207 671.763 14.9407 671.595 14.614C671.427 14.2873 671.334 13.9233 671.315 13.522H672.911ZM674.437 7.334C674.148 7.334 673.896 7.39 673.681 7.502C673.467 7.60467 673.289 7.74933 673.149 7.936C673.009 8.12267 672.902 8.33733 672.827 8.58C672.762 8.82267 672.729 9.07467 672.729 9.336C672.729 9.60667 672.762 9.868 672.827 10.12C672.902 10.3627 673.009 10.5773 673.149 10.764C673.289 10.9507 673.467 11.1047 673.681 11.226C673.896 11.338 674.148 11.394 674.437 11.394C674.736 11.394 674.997 11.338 675.221 11.226C675.445 11.114 675.627 10.9647 675.767 10.778C675.917 10.582 676.029 10.3627 676.103 10.12C676.178 9.868 676.215 9.60667 676.215 9.336C676.215 9.07467 676.178 8.82267 676.103 8.58C676.029 8.33733 675.917 8.12733 675.767 7.95C675.627 7.76333 675.445 7.614 675.221 7.502C674.997 7.39 674.736 7.334 674.437 7.334Z" fill="#6A717D"/>
<path d="M751.81 7.824C752.146 7.824 752.473 7.796 752.79 7.74C753.108 7.684 753.392 7.59067 753.644 7.46C753.906 7.32933 754.125 7.16133 754.302 6.956C754.489 6.75067 754.61 6.49867 754.666 6.2H755.968V16H754.218V9.084H751.81V7.824ZM762.74 6.004C763.44 6.004 764.009 6.16733 764.448 6.494C764.896 6.81133 765.241 7.222 765.484 7.726C765.736 8.22067 765.904 8.76667 765.988 9.364C766.081 9.96133 766.128 10.54 766.128 11.1C766.128 11.66 766.081 12.2387 765.988 12.836C765.904 13.4333 765.736 13.984 765.484 14.488C765.241 14.9827 764.896 15.3933 764.448 15.72C764.009 16.0373 763.44 16.196 762.74 16.196C762.04 16.196 761.466 16.0373 761.018 15.72C760.579 15.3933 760.234 14.9827 759.982 14.488C759.739 13.984 759.571 13.4333 759.478 12.836C759.394 12.2387 759.352 11.66 759.352 11.1C759.352 10.54 759.394 9.96133 759.478 9.364C759.571 8.76667 759.739 8.22067 759.982 7.726C760.234 7.222 760.579 6.81133 761.018 6.494C761.466 6.16733 762.04 6.004 762.74 6.004ZM762.74 14.866C763.085 14.866 763.374 14.768 763.608 14.572C763.841 14.3667 764.023 14.096 764.154 13.76C764.294 13.4147 764.392 13.0133 764.448 12.556C764.504 12.0987 764.532 11.6133 764.532 11.1C764.532 10.5867 764.504 10.106 764.448 9.658C764.392 9.20067 764.294 8.79933 764.154 8.454C764.023 8.10867 763.841 7.838 763.608 7.642C763.374 7.43667 763.085 7.334 762.74 7.334C762.385 7.334 762.091 7.43667 761.858 7.642C761.634 7.838 761.452 8.10867 761.312 8.454C761.181 8.79933 761.088 9.20067 761.032 9.658C760.976 10.106 760.948 10.5867 760.948 11.1C760.948 11.6133 760.976 12.0987 761.032 12.556C761.088 13.0133 761.181 13.4147 761.312 13.76C761.452 14.096 761.634 14.3667 761.858 14.572C762.091 14.768 762.385 14.866 762.74 14.866Z" fill="#6A717D"/>
<path d="M840.111 7.824C840.447 7.824 840.774 7.796 841.091 7.74C841.408 7.684 841.693 7.59067 841.945 7.46C842.206 7.32933 842.426 7.16133 842.603 6.956C842.79 6.75067 842.911 6.49867 842.967 6.2H844.269V16H842.519V9.084H840.111V7.824ZM847.89 7.824C848.226 7.824 848.553 7.796 848.87 7.74C849.188 7.684 849.472 7.59067 849.724 7.46C849.986 7.32933 850.205 7.16133 850.382 6.956C850.569 6.75067 850.69 6.49867 850.746 6.2H852.048V16H850.298V9.084H847.89V7.824Z" fill="#6A717D"/>
<path d="M928.412 7.824C928.748 7.824 929.075 7.796 929.392 7.74C929.709 7.684 929.994 7.59067 930.246 7.46C930.507 7.32933 930.727 7.16133 930.904 6.956C931.091 6.75067 931.212 6.49867 931.268 6.2H932.57V16H930.82V9.084H928.412V7.824ZM942.687 16H935.995C936.005 15.188 936.201 14.4787 936.583 13.872C936.966 13.2653 937.489 12.738 938.151 12.29C938.469 12.0567 938.8 11.8327 939.145 11.618C939.491 11.394 939.808 11.156 940.097 10.904C940.387 10.652 940.625 10.3813 940.811 10.092C940.998 9.79333 941.096 9.45267 941.105 9.07C941.105 8.89267 941.082 8.706 941.035 8.51C940.998 8.30467 940.919 8.118 940.797 7.95C940.676 7.77267 940.508 7.628 940.293 7.516C940.079 7.39467 939.799 7.334 939.453 7.334C939.136 7.334 938.87 7.39933 938.655 7.53C938.45 7.65133 938.282 7.824 938.151 8.048C938.03 8.26267 937.937 8.51933 937.871 8.818C937.815 9.11667 937.783 9.43867 937.773 9.784H936.177C936.177 9.24267 936.247 8.74333 936.387 8.286C936.537 7.81933 936.756 7.418 937.045 7.082C937.335 6.746 937.685 6.48467 938.095 6.298C938.515 6.102 939.001 6.004 939.551 6.004C940.149 6.004 940.648 6.102 941.049 6.298C941.451 6.494 941.773 6.74133 942.015 7.04C942.267 7.33867 942.445 7.66533 942.547 8.02C942.65 8.36533 942.701 8.69667 942.701 9.014C942.701 9.406 942.641 9.76067 942.519 10.078C942.398 10.3953 942.235 10.6893 942.029 10.96C941.824 11.2213 941.591 11.464 941.329 11.688C941.068 11.912 940.797 12.122 940.517 12.318C940.237 12.514 939.957 12.7007 939.677 12.878C939.397 13.0553 939.136 13.2327 938.893 13.41C938.66 13.5873 938.455 13.774 938.277 13.97C938.1 14.1567 937.979 14.3573 937.913 14.572H942.687V16Z" fill="#6A717D"/>
</svg>
